<?xml version="1.0" encoding="utf-8"?>
<!-- Generator: Adobe Illustrator 22.1.0, SVG Export Plug-In . SVG Version: 6.00 Build 0)  -->

<svg version="1.1" id="elements" xmlns="http://www.w3.org/2000/svg" xmlns:xlink="http://www.w3.org/1999/xlink" x="0px" y="0px"
	 viewBox="0 0 919.4 461.7" style="enable-background:new 0 0 919.4 461.7;" xml:space="preserve">
<style type="text/css">
	@import url(animate.min.css);
	.st0{fill:#4D4D4D;}
	.st1{fill:#FFF9EF;}
	.st2{fill:#9DE0F3;}
	.st3{fill:#F8D093;}
	.st4{opacity:0.5;fill:#8EC3D3;}
	.st5{opacity:0.5;fill:#96D1E3;}
	.st6{opacity:0.5;fill:#87B7C5;}
	.st7{opacity:0.5;fill:#62737A;}
	.st8{opacity:0.5;fill:#93B7C3;}
	.st9{opacity:0.5;fill:#9DC7D5;}
	.st10{fill:#4EAD75;}
	.st11{fill:#7BE8A7;}
	.st12{fill:#E6E6E6;}
	.st13{fill:#FFFFFF;}
	.st14{fill:#B2B2B2;}
	.st15{fill:#CFCFCF;}
	.st16{fill:#2D3E51;}
	.st17{fill:#F2EBD9;}
	.st18{fill:#333333;}
	.st19{fill:#CDCACA;}
	.st20{fill:#F6F2ED;}
	.st21{fill:#61B9E6;}
	.st22{fill:#FEFEFB;}
	.st23{fill:#8FCEEC;}
	.st24{fill:#676567;}
	.st25{fill:#808080;}
	.st26{fill:#363636;}
	.st27{fill:#BCBCBC;}
	.st28{fill:#F2817C;}
	.st29{fill:#389CD5;}
	.st30{fill:#F3A62A;}
	.st31{fill:#5F5F5F;}
	.st32{fill:#BEBEBE;}
	.st33{fill:#767676;}
	.st34{fill:#89EAAF;}
	.st35{fill:#8E8E8E;}
	.st36{fill:#61BAE6;}
	.st37{opacity:0.15;fill:#FFFFFF;}
	.st38{fill:#E4DDCA;}
	.st39{fill:#EFF2F3;}
	.st40{fill:#BAA786;}
	.st41{fill:#D2CDC0;}
	.st42{fill:#2E3E4E;}
	.st43{fill:#EF746E;}
	.st44{fill:none;stroke:#595A5C;stroke-miterlimit:10;}
	.st45{fill:#9B9796;}
	.st46{fill:#CCCCCC;}
	.st47{fill:#706D73;}
	.st48{fill:#F68082;}
	.st49{fill:#FF997F;}
	.st50{fill:#CDCAC9;}
	.st51{fill:#FFFAEF;}
	.st52{fill:#FCB038;}
	.st53{fill:#415065;}
	.st54{fill:#667488;}
	.st55{fill:#576477;}
	.st56{fill:#536473;}
	.st57{fill:#526178;}
	.st58{fill:#6B7185;}
	.st59{fill:#E5E5E5;}
	.st60{fill:#FDFEFE;}
	.st61{fill:#E5E6E3;}
	.st62{fill:#E6A454;}
	.st63{fill:#0090C4;}
	.st64{fill:#00B5F5;}
	.st65{fill:#D4D4D4;}
	.st66{fill:#E2AB59;}
	.st67{fill:#FFF300;}
	.st68{fill:#F3BB06;}
	.st69{fill:#362F32;}
	.st70{fill:#231F20;}
	.st71{fill:#342F2A;}
	.st72{fill:#3E4861;}
	.st73{fill:#596176;}
	.st74{fill:#4B566C;}
	.st75{opacity:0.2;}
	.st76{fill:#999999;}
	.st77{fill:#1A1A1A;}
	.st78{fill:#FEFEFE;}
	.st79{fill:none;stroke:#022533;stroke-miterlimit:10;}
	.st80{fill:none;stroke:#FF3E4C;stroke-width:0.5;stroke-miterlimit:10;}
	.st81{fill:#FF3E4C;}
	.st82{fill:#FFC33D;}
	.st83{fill:#EB5546;}
	.st84{fill:#623240;}
	.st85{opacity:0.5;}
	.st86{fill:#FFC33E;}
	.st87{fill:#FFC43E;}
	.st88{fill:#22B3B8;}
	.st89{fill:#FFC43D;}
	.st90{fill:#2E6F85;}
	.st91{fill:#326D85;}
	.st92{fill:#1FB3B9;}
	.st93{fill:#22B4B9;}
	.st94{fill:#21B4B8;}
	.st95{fill:#613240;}
	.st96{fill:#FFFFFE;}
	.st97{fill:#FFE0A2;}
	.st98{fill:#687C95;}
	.st99{fill:#72809B;}
	.st100{fill:#E9EAEE;}
	.st101{fill:#8897AA;}
</style>
<g>
	<!-- background  -->
	<rect class="st0" width="919.4" height="461.7"/>
	<!-- window group -->
	<g> 
		<!-- windowframe -->
		<rect x="583.3" y="58" class="st1" width="277.8" height="355.1"/>
		<!-- sky -->
		<rect x="599.4" y="72.1" class="st2" width="245.5" height="326.9"/>
		<!-- sun -->
		<path class="st3 animated flash slow" d="M675.7,124.7c0,13.5-10.9,24.4-24.4,24.4c-13.5,0-24.4-10.9-24.4-24.4s10.9-24.4,24.4-24.4
			C664.8,100.2,675.7,111.2,675.7,124.7z"/>

		<rect x="785" y="250.6" class="st4" width="59.9" height="108.3"/>
		<rect x="725.8" y="157.4" class="st5" width="59.2" height="177.5"/>
		<rect x="680.2" y="203.2" class="st6" width="61.1" height="146.9"/>
		<rect x="725.8" y="276.8" class="st7" width="49.1" height="95"/>
		<rect x="634.4" y="257.8" class="st8" width="57.2" height="73.5"/>
		<rect x="599.4" y="230.9" class="st9" width="63.6" height="119.3"/>
		<path class="st10" d="M844.9,305.7c0,0-31.6-26.4-63.2-1.2c0,0-24.8-19.9-70.9,23.5c0,0-44.1-84.5-111.4-3.7V399h245.5V305.7z"/>
		<path class="st11" d="M844.9,346.5c0,0-22.2-19.1-39-3.4c0,0-38.3-52.6-80-1.4c0,0-28.2-40.5-62.9,8.4c0,0-31.3-49.5-63.6,0V399
			h245.5V346.5z"/>
		<rect x="712.2" y="58" class="st1" width="19.1" height="355.1"/>
	</g>

	<!-- table  -->
	<g class="animated bounceIn slow">
		<rect x="72.9" y="358.9" class="st12" width="632.3" height="102.8"/>
		<rect x="58.8" y="338.5" class="st13" width="660.2" height="23.3"/>
		<rect x="58.8" y="361.8" class="st14" width="660.2" height="4.9"/>
		<rect x="72.9" y="366.6" class="st15" width="632.3" height="10.3"/>
	</g>

<!-- monitor -->
		<g class="animated lightSpeedIn delay-1s">
		<g>
			<path class="st16" d="M464,151c0-6-4.3-10.9-9.5-10.9H242.2c-5.2,0-9.5,4.9-9.5,10.9v124.3H464V151z"/>
			<path class="st17" d="M232.7,275.2v18.2c0,6,4.3,10.9,9.5,10.9h212.4c5.2,0,9.5-4.9,9.5-10.9v-18.2H232.7z"/>
		</g>
		<rect x="239.8" y="147.6" class="st18" width="218.2" height="123.3"/>
		<rect x="343.5" y="284.6" class="st16" width="9.3" height="9.3"/>
		<rect x="306.3" y="330.8" class="st19" width="84.1" height="7"/>
		<g>
			<polygon class="st19" points="377.7,304.3 318.8,304.3 318.1,307.6 378.5,307.6 			"/>
			<polygon class="st20" points="318.1,307.6 312.7,330.8 383.7,330.8 378.5,307.6 			"/>
		</g>
		<rect x="239.8" y="259.4" class="st21" width="218.2" height="11.6"/>
		<g>
			<rect x="243.2" y="262.5" class="st22" width="6.2" height="4.4"/>
			<rect x="252.4" y="259.4" class="st23" width="12.4" height="11.6"/>
			<rect x="265.7" y="259.4" class="st23" width="12.4" height="11.6"/>
			<rect x="278.7" y="259.4" class="st23" width="12.4" height="11.6"/>
		</g>
		<rect x="239.8" y="255" class="st24" width="218.2" height="4.5"/>
		<rect x="239.8" y="147.6" class="st24" width="218.2" height="18.3"/>
		<rect x="447.3" y="169.5" class="st24" width="10.7" height="85.5"/>
		<g>
			<rect x="450" y="173.1" class="st25" width="5" height="5.6"/>
			<rect x="450" y="181.3" class="st25" width="5" height="5.6"/>
			<rect x="450" y="189.4" class="st25" width="5" height="5.6"/>
			<rect x="450" y="197.6" class="st25" width="5" height="5.6"/>
			<rect x="450.1" y="205.7" class="st25" width="5" height="5.6"/>
			<rect x="450" y="214.2" class="st25" width="5" height="5.6"/>
		</g>
		<g>
			<rect x="438.1" y="148.2" class="st26" width="4.4" height="4.5"/>
			<rect x="443.6" y="148.2" class="st26" width="4.4" height="4.5"/>
			<rect x="449.2" y="148.2" class="st26" width="4.4" height="4.5"/>
		</g>
		<g>
			<rect x="312.7" y="159.9" class="st27" width="10.6" height="3.9"/>
			<rect x="294.3" y="159.9" class="st27" width="10.6" height="3.9"/>
			<rect x="281.8" y="159.9" class="st27" width="10.6" height="3.9"/>
			<rect x="287.6" y="151.2" class="st27" width="8.6" height="2.7"/>
			<rect x="276.9" y="151.2" class="st27" width="8.6" height="2.7"/>
			<rect x="265.9" y="151.2" class="st27" width="8.6" height="2.7"/>
			<rect x="254.4" y="151.2" class="st27" width="8.6" height="2.7"/>
			<rect x="243.2" y="160.5" class="st27" width="10.5" height="2.7"/>
			<rect x="269.5" y="159.9" class="st27" width="10.6" height="3.9"/>
			<rect x="257.4" y="159.9" class="st28" width="3.8" height="3.9"/>
			<rect x="262.9" y="159.9" class="st29" width="3.8" height="3.9"/>
			<rect x="244.2" y="149.2" class="st30" width="6.5" height="6.5"/>
		</g>
		<g>
			<rect x="239.8" y="165.9" class="st31" width="23.9" height="3.6"/>
			<rect x="242.5" y="167.5" class="st32" width="18.6" height="0.6"/>
		</g>
		<g>
			<rect x="243.9" y="173.8" class="st33" width="19.1" height="61.4"/>
			<rect x="251.9" y="223.7" class="st13" width="8.1" height="8.8"/>
			<rect x="246.3" y="218.7" class="st34" width="8.1" height="8.1"/>
			<rect x="255" y="210" class="st35" width="5.6" height="5.7"/>
			<rect x="246.3" y="210" class="st35" width="5.6" height="5.7"/>
			<rect x="255" y="202" class="st35" width="5.6" height="5.7"/>
			<rect x="246.2" y="202" class="st35" width="5.6" height="5.7"/>
			<rect x="255" y="193.9" class="st35" width="5.6" height="5.7"/>
			<rect x="246.2" y="193.9" class="st35" width="5.6" height="5.7"/>
			<rect x="255" y="186.2" class="st35" width="5.6" height="5.7"/>
			<rect x="246.2" y="186.2" class="st35" width="5.6" height="5.7"/>
			<rect x="255" y="178.1" class="st35" width="5.6" height="5.7"/>
			<rect x="246.2" y="178.1" class="st35" width="5.6" height="5.7"/>
		</g>
		<rect x="310.4" y="186.9" class="st36" width="41.5" height="41.4"/>
		<polygon class="st37" points="458,147.6 239.8,147.6 239.8,271 		"/>
	</g>

	<!-- cup -->
	<g class="animated bounceInUp">
		<polygon class="st38" points="172.6,274.4 176.9,338.5 209.4,338.5 214.2,274.4 		"/>
		<path class="st39 animated fadeInDown delay-1s" d="M214.4,271C214.4,271,214.4,271,214.4,271c0-1.6-2.7-2.8-6-2.8h-28c-3.3,0-6,1.2-6,2.7c0,0,0,0,0,0.1h-4.2
			v6.8h47.8V271H214.4z"/>
		<polygon class="st40" points="173.7,291 212.9,291 210.8,319.3 175.6,319.3 		"/>
		<polygon class="st41" points="172.9,277.8 213.9,277.8 213.7,281.4 173.1,281.4 		"/>
	</g>


	<!-- mouse -->
	<g class="animated bounce slow">
		<path class="st50" d="M420.8,332.3c-0.2,1.1-0.4,2.3-0.4,3.5c0,0.9,0.1,1.8,0.2,2.7l32.7,0c0.1-0.9,0.2-1.8,0.2-2.7
			c0-1.2-0.1-2.3-0.4-3.5C437,342.5,420.8,332.4,420.8,332.3z"/>
		<path class="st51" d="M453.2,332.3c-1.6-7.5-8.2-13.1-16.2-13.1c-8,0-14.6,5.6-16.2,13.1C420.8,332.4,437,342.5,453.2,332.3z"/>
	</g>
	<!-- sticky notes -->
	<polygon class="st52 animated fadeInRight delay-2s" points="437.9,283.7 471,278.8 475.9,312.1 442.8,316.9 	"/>
	<!-- scissors  -->
	<g class="animated fadeInDown slower">
	<rect x="512.5" y="249" class="st53" width="1.4" height="3.1"/>
	<g>
		<path class="st54" d="M511.9,243.8v4.4c0,0.8,0.6,1.5,1.4,1.5v-7.5C512.5,242.3,511.9,243,511.9,243.8z"/>
		<path class="st55" d="M513.2,242.3v7.5c0.8,0,1.4-0.7,1.4-1.5v-4.4C514.6,243,514,242.3,513.2,242.3z"/>
	</g>
	<path class="st56" d="M513.2,251.6c-4,0-7.3,3.3-7.3,7.3c0,4,3.3,7.3,7.3,7.3c4,0,7.3-3.3,7.3-7.3
		C520.5,254.8,517.3,251.6,513.2,251.6z M513.2,264.4c-3.1,0-5.6-2.5-5.6-5.6c0-3.1,2.5-5.6,5.6-5.6c3.1,0,5.6,2.5,5.6,5.6
		C518.8,261.9,516.3,264.4,513.2,264.4z"/>
	<path class="st57" d="M524,275.5c0,0.2-0.3,0.4-0.8,0.4h-20c-0.4,0-0.8-0.2-0.8-0.4c0-0.2,0.3-0.4,0.8-0.4h20
		C523.6,275,524,275.2,524,275.5z"/>
	<g>
		<polygon class="st58" points="521.1,299.1 520.7,300.1 520.4,299.1 520.4,296.5 521.1,296.5 			"/>
		<g>
			<rect x="522.8" y="290.3" class="st13" width="0.7" height="3"/>
			<path class="st59" d="M523.6,291.8c0,1-0.1,1.9-0.1,1.9c-0.1,0-0.1-0.8-0.1-1.9c0-1,0.1-1.9,0.1-1.9
				C523.5,289.9,523.6,290.7,523.6,291.8z"/>
		</g>
		<path class="st53" d="M520.1,297l-0.3-6.2l-6.5-28.1l3.2-1.2l6.4,28.4c0,0,0.2,3.4-0.7,7.2H520.1z"/>
	</g>
	<g>
		<polygon class="st58" points="505.3,299.1 505.7,300.1 506,299.1 506,296.5 505.3,296.5 			"/>
		<g>
			<rect x="502.9" y="290.3" class="st13" width="0.7" height="3"/>
			<path class="st59" d="M502.8,291.8c0,1,0.1,1.9,0.1,1.9c0.1,0,0.1-0.8,0.1-1.9c0-1-0.1-1.9-0.1-1.9
				C502.9,289.9,502.8,290.7,502.8,291.8z"/>
		</g>
		<path class="st53" d="M506.3,297l0.3-6.2l6.5-28.1l-3.2-1.2l-6.4,28.4c0,0-0.2,3.4,0.7,7.2H506.3z"/>
	</g>
	<g>
		<path class="st60" d="M510.8,264c0,1.4,1.1,2.5,2.5,2.5v-4.9C511.9,261.6,510.8,262.7,510.8,264z"/>
		<path class="st61" d="M513.2,261.6v4.9c1.4,0,2.5-1.1,2.5-2.5C515.7,262.7,514.6,261.6,513.2,261.6z"/>
	</g>
	<g>
		<path class="st60" d="M513.2,272.4c-0.4,0-0.8,0.3-0.8,0.8v5.3c0,0.4,0.3,0.8,0.8,0.8h0L513.2,272.4L513.2,272.4z"/>
		<path class="st61" d="M513.3,272.4L513.3,272.4l0,6.8h0c0.4,0,0.8-0.3,0.8-0.8v-5.3C514,272.8,513.7,272.4,513.3,272.4z"/>
	</g>
	</g>

	<!-- left pen -->
	<g class="animated fadeInDown">
		<polygon class="st62" points="496.8,312.2 502.1,320 503.5,311 		"/>
		<g>
			<polygon class="st63" points="493.5,274.2 496.6,273.6 503.5,311 500.4,311.5 			"/>
			<polygon class="st64" points="500.4,311.5 496.8,312.2 489.9,274.8 493.5,274.2 			"/>
			<polygon class="st65" points="490.9,260.1 494,259.6 496.6,273.6 493.5,274.2 			"/>
			<polygon class="st13" points="489.9,274.8 487.4,260.8 490.9,260.1 493.5,274.2 			"/>
		</g>
		<polygon class="st13" points="502.5,317.5 500.7,317.9 502.1,320 		"/>
	</g>
	<!-- right pen -->
	<g class="animated fadeInDown delay-1s">
		<polygon class="st66" points="516.3,304.8 510.9,311.3 510.5,303.1 		"/>
		<g>
			<polygon class="st67" points="522.7,271.2 519.9,270.4 510.5,303.1 513.2,303.9 			"/>
			<polygon class="st68" points="513.2,303.9 516.3,304.8 525.8,272 522.7,271.2 			"/>
			<polygon class="st69" points="526.2,258.9 523.5,258.1 519.9,270.4 522.7,271.2 			"/>
			<polygon class="st70" points="525.8,272 529.3,259.8 526.2,258.9 522.7,271.2 			"/>
		</g>
		<polygon class="st13" points="510.8,309 512.4,309.5 510.9,311.3 		"/>
	</g>
	<!-- middle pen -->
	<g>
		<polygon class="st13 animated slideInDown" points="505.4,300 507.5,299.9 506.6,283.8 504.5,283.9 502.4,284 503.3,300.1 		"/>
		<path class="st13 animated slideInDown" d="M502.1,283.3l2.4-0.1l2.4-0.1l-1.1-20l-1,0.1c0.4-0.3,0.6-1.2,0.6-2.3c-0.1-1.3-0.6-2.4-1.1-2.3l-1.1,0.1
			l-1.2,0.1c-0.6,0-0.9,1.1-0.9,2.4c0.1,1.1,0.4,2,0.8,2.2l-0.9,0.1L502.1,283.3z"/>
		<path class="st71 animated slideInDown" d="M505.5,312.1l0.5,0l-0.3-5.9c-0.3-0.2-0.5-0.8-0.6-1.6c-0.1-0.9,0.2-1.7,0.5-1.7c0,0,0,0,0,0
			c0.3,0,0.6,0.7,0.7,1.7c0,0.8-0.1,1.5-0.4,1.7l0.3,5.9l0.5,0c-0.2-8.1,0.9-9.8,0.9-9.8l-0.2-3l-2.1,0.1l-2.2,0.1l0.2,3.1
			C504.9,303.7,505.5,312.1,505.5,312.1z"/>
		<path class="st71 animated slideInDown" d="M502.3,284.7l2.3-0.1l2.3-0.1c0.3,0,0.6-0.6,0.5-1.2c0-0.7-0.3-1.2-0.7-1.2l-2.3,0.1l-2.3,0.1
			c-0.3,0-0.6,0.6-0.5,1.2C501.6,284.2,501.9,284.7,502.3,284.7z"/>
		<path class="st71 animated slideInDown" d="M504.9,275.3c0,0.8,0.3,1.5,0.5,1.5c0.2,0,0.4-0.7,0.4-1.5l-0.7-11.5c0,0,0,0,0,0l0.5,0
			c0.3,0,0.6-0.6,0.5-1.2c0-0.7-0.3-1.2-0.7-1.2l-2.2,0.1l-2.3,0.1c-0.3,0-0.6,0.6-0.5,1.2c0,0.7,0.3,1.2,0.7,1.2l2.3-0.1l0.9,0
			c0,0,0,0,0,0L504.9,275.3z"/>
	</g>
	<!-- the pen conatiner -->
	<g class="animated bounceInUp">
		<rect x="488.7" y="291" class="st72" width="36.9" height="47.4"/>
		<rect x="492.9" y="291" class="st73" width="8.9" height="47.4"/>
		<rect x="501.8" y="291" class="st74" width="10.7" height="47.4"/>
		<rect x="487.4" y="287.9" class="st72" width="39.9" height="6.2"/>
		<rect x="488.7" y="294.1" class="st75" width="36.9" height="2.5"/>
	</g>

	<!-- the printer -->
	<g class="animated fadeInRight">
		<rect x="549.7" y="288.1" class="st76" width="130.5" height="50.4"/>
		<rect x="549.7" y="288.1" class="st0" width="130.5" height="2.3"/>
		<rect x="571.1" y="304.1" class="st0" width="88.2" height="34.4"/>
		<rect x="571.1" y="331.2" class="st77" width="88.2" height="7.2"/>
		<rect x="571.1" y="263.7" class="st0" width="88.2" height="24.4"/>
		<rect x="577.6" y="227.5" class="st78" width="75.5" height="60.6"/>
	</g>
	 
	 <!-- the clock -->
	
	<g class="animated swing">
		
			<ellipse transform="matrix(0.1598 -0.9871 0.9871 0.1598 325.2143 514.3569)" class="st13" cx="464.8" cy="66.1" rx="36.8" ry="36.8"/>
		<path class="st38" d="M464.8,97.5c-17.3,0-31.4-14.1-31.4-31.4c0-17.3,14.1-31.4,31.4-31.4c17.3,0,31.4,14.1,31.4,31.4
			C496.2,83.4,482.1,97.5,464.8,97.5z"/>
		<line class="st79" x1="448.7" y1="55.6" x2="469.2" y2="69.2"/>
		<line class="st79" x1="484.7" y1="45.4" x2="461.3" y2="69.9"/>
		<line class="st80" x1="462.9" y1="63.1" x2="478.4" y2="87.6"/>
		<path class="st81" d="M465.8,66.1c0,0.5-0.4,1-1,1s-1-0.4-1-1c0-0.5,0.4-1,1-1S465.8,65.6,465.8,66.1z"/>
	</g>
	<!-- the book shelf -->
	<rect x="266.7" y="107.8" class="st1 animated " width="121.6" height="7.8"/>
	<!-- books -->
	<g>
		<g class="animated bounceInRight slow">
			<polygon class="st82" points="289.8,48.9 284.6,106.6 296.5,107.7 301.4,50 			"/>
			<polygon class="st83" points="289.4,53.3 301,54.4 300.7,58.5 289,57.6 			"/>
			<polygon class="st83" points="286.1,89.3 298,90.5 297.6,94.7 285.7,93.8 			"/>
			<polygon class="st83" points="285.2,99.1 297.2,100.1 297,101.8 285.1,100.9 			"/>
			<path class="st84" d="M296.4,68.3c-0.4,3.9-1.8,6.9-3.1,6.7c-1.3-0.1-2.1-3.4-1.8-7.2c0.4-3.8,1.8-6.9,3.1-6.7
				C296,61.2,296.7,64.4,296.4,68.3z"/>
			<polygon class="st85" points="295.7,49.5 301.4,50 296.5,107.7 290.6,107.1 			"/>
		</g>
		<g class="animated bounceInLeft slow">
			<rect x="301.5" y="27.7" class="st84" width="17.6" height="80"/>
			<rect x="301.4" y="37.6" class="st83" width="17.7" height="16.3"/>
			<rect x="304.5" y="63.9" class="st86" width="11.8" height="13.2"/>
			<rect x="301.4" y="81" class="st87" width="17.7" height="3.3"/>
			<rect x="301.4" y="89.8" class="st86" width="17.7" height="5.9"/>
			<rect x="310.4" y="27.7" class="st85" width="8.7" height="80"/>
		</g>
		<g class="animated bounceInRight slow">
			<rect x="321.6" y="35.5" class="st88" width="12.6" height="72.2"/>
			<rect x="321.6" y="95.2" class="st89" width="12.6" height="3.5"/>
			<rect x="321.6" y="59.2" class="st90" width="12.6" height="13.1"/>
			<rect x="321.6" y="45.4" class="st90" width="12.6" height="3.6"/>
			<rect x="327.9" y="35.5" class="st85" width="6.3" height="72.2"/>
		</g>
		<g class="animated bounceInLeft slow">
			<polygon class="st91" points="333.9,27.9 340.9,107.7 347.6,107 340.6,27.3 			"/>
			<polygon class="st92" points="334.4,34 341.1,33.4 341.4,36 334.7,36.6 			"/>
			<polygon class="st93" points="337,43.4 340.2,43.1 344.4,90.6 341.1,90.6 			"/>
			<polygon class="st94" points="339.7,94 346.4,93.3 346.9,99.3 340.3,100 			"/>
			<polygon class="st85" points="347.6,107 340.6,27.3 337,27.6 344.4,107.3 			"/>
		</g>
		<g class="animated bounceInRight">
			<rect x="347.9" y="42.5" class="st83" width="17" height="65.2"/>
			<rect x="347.9" y="48.7" class="st86" width="17" height="5.1"/>
			<rect x="347.9" y="92.6" class="st95" width="17" height="2.4"/>
			<path class="st84" d="M362.5,65.8c0,3.4-2.7,6.1-6.1,6.1c-3.4,0-6.1-2.7-6.1-6.1c0-3.4,2.7-6.1,6.1-6.1
				C359.7,59.7,362.5,62.4,362.5,65.8z"/>
			<rect x="356.4" y="42.5" class="st85" width="8.5" height="65.2"/>
		</g>
	</g>
	<!-- wall painting -->
	<g class="animated tada slow">
		<rect x="70.2" y="55.9" class="st96" width="130" height="168.2"/>
		<rect x="77.2" y="62.9" class="st36" width="116" height="154.2"/>
		<path class="st97" d="M100,86.4c0-5.2,3.4-9.6,8.1-11.1c-1.1-0.4-2.3-0.5-3.5-0.5C98.2,74.8,93,80,93,86.4
			c0,6.4,5.2,11.6,11.6,11.6c1.2,0,2.4-0.2,3.5-0.5C103.4,96,100,91.6,100,86.4z"/>
		<g>
			<g>
				<polygon class="st98" points="83.2,217.1 120.6,217.1 120.2,110 				"/>
				<polygon class="st99" points="120.2,110 120.6,217.1 158.2,217.1 				"/>
			</g>
			<polygon class="st100" points="111.7,134.6 113.5,142 118.5,132.1 124.5,146.3 126.2,135 131,140.5 120.2,110 			"/>
		</g>
		<g>
			<g>
				<polygon class="st101" points="117.3,217.1 149.4,217.1 149,125.3 				"/>
				<polygon class="st99" points="149,125.3 149.4,217.1 181.6,217.1 				"/>
			</g>
			<polygon class="st100" points="141.7,146.3 143.3,152.7 147.6,144.2 152.8,156.3 154.2,146.7 158.3,151.4 149,125.3 			"/>
		</g>
	</g>
	
</g>
</svg>
